<?xml version="1.0" encoding="utf-8"?>
<!-- Generator: Adobe Illustrator 27.0.0, SVG Export Plug-In . SVG Version: 6.00 Build 0)  -->
<svg version="1.1" id="Layer_1" xmlns="http://www.w3.org/2000/svg" xmlns:xlink="http://www.w3.org/1999/xlink" x="0px" y="0px"
	 viewBox="0 0 23.1 13.8" style="enable-background:new 0 0 23.1 13.8;" xml:space="preserve">
<style type="text/css">
	.st0{fill:#FFFFFF;}
</style>
<g>
	<path class="st0" d="M11.6,1.2c3.1,0,5.7,2.6,5.7,5.7s-2.6,5.7-5.7,5.7S5.9,10,5.9,6.9S8.4,1.2,11.6,1.2 M11.6,0
		C7.7,0,4.7,3.1,4.7,6.9s3.1,6.9,6.9,6.9c3.8,0,6.9-3.1,6.9-6.9S15.4,0,11.6,0L11.6,0z"/>
</g>
<g>
	<path class="st0" d="M14.5,4.7c0,0,0,0.1,0,0.2c0,0.1,0,0.1,0,0.2c0,0,0,0.1,0,0.1c0,0,0,0.1,0,0.1c0,0.1,0,0.2-0.1,0.3
		c0,0.1,0,0.2-0.1,0.3c-0.1,0.1-0.1,0.3-0.2,0.4c-0.1,0.1-0.2,0.2-0.3,0.3l-0.1,0.1c-0.1,0-0.1,0.1-0.2,0.1
		c-0.1,0.1-0.1,0.1-0.2,0.1C13.2,7,13.1,7.1,13,7.2c-0.1,0.1-0.2,0.2-0.3,0.3c-0.2,0.2-0.3,0.4-0.3,0.6c0,0.1,0,0.2,0,0.3
		c0,0.1,0,0.2-0.1,0.3c0,0-0.1,0.1-0.1,0.1c0,0-0.1,0-0.1,0h-0.3c-0.1,0-0.2,0-0.3,0c-0.1,0-0.2,0-0.3,0c-0.1,0-0.2,0-0.2,0
		s-0.1,0-0.2-0.1c0,0,0-0.1-0.1-0.1s0-0.1,0-0.2V8.2c0,0,0-0.1,0-0.1c0,0,0-0.1,0-0.1c0-0.1,0.1-0.2,0.1-0.3c0-0.1,0-0.2,0.1-0.3
		C10.9,7.2,11,7,11.1,6.9c0.1-0.2,0.2-0.3,0.3-0.4l0.1-0.1c0.1,0,0.1-0.1,0.2-0.1c0,0,0.1-0.1,0.1-0.1C12,6.1,12.1,6,12.2,5.9
		c0.1-0.1,0.2-0.2,0.3-0.4c0-0.1,0.1-0.1,0.1-0.2c0-0.1,0-0.2,0-0.3c0-0.1,0-0.2,0-0.3c0-0.1,0-0.2-0.1-0.3c0,0,0-0.1-0.1-0.1
		c0,0-0.1-0.1-0.1-0.1c0-0.1-0.1-0.1-0.2-0.2C12.1,4,12,4,11.9,4c0,0-0.1,0-0.1,0c0,0-0.1,0-0.1,0s-0.1,0-0.1,0s-0.1,0-0.1,0
		c0,0-0.1,0-0.1,0c0,0-0.1,0-0.1,0c-0.3,0.1-0.6,0.3-0.7,0.7c0,0.1,0,0.1-0.1,0.2c0,0.1,0,0.1-0.1,0.2c0,0.1,0,0.2-0.1,0.2
		s0,0.1-0.1,0.2c0,0-0.1,0-0.2,0s-0.1,0-0.2,0H9.1c-0.1,0-0.2,0-0.2,0c-0.1,0-0.1,0-0.2-0.1c0,0-0.1-0.1-0.1-0.2c0-0.1,0-0.1,0-0.2
		c0,0,0-0.1,0-0.1c0,0,0-0.1,0-0.1c0-0.1,0-0.2,0.1-0.3c0-0.1,0.1-0.2,0.1-0.2c0,0,0-0.1,0-0.1c0,0,0-0.1,0.1-0.1
		C9,3.9,9.1,3.8,9.2,3.6c0.1-0.2,0.2-0.3,0.4-0.4C9.7,3.1,9.9,3,10.1,2.9c0.1,0,0.1-0.1,0.2-0.1c0.1,0,0.1,0,0.2-0.1
		c0.1,0,0.2-0.1,0.3-0.1c0.1,0,0.2,0,0.3-0.1c0,0,0.1,0,0.2,0s0.1,0,0.2,0c0.4,0,0.8,0,1.2,0.1c0.3,0.1,0.6,0.2,0.9,0.4
		c0.1,0.1,0.1,0.1,0.2,0.2s0.1,0.1,0.2,0.2c0,0,0.1,0.1,0.1,0.1s0.1,0.1,0.1,0.1c0,0,0,0.1,0,0.1c0,0,0,0.1,0,0.1
		c0.1,0.1,0.1,0.2,0.1,0.3c0,0.1,0.1,0.2,0.1,0.3c0,0,0,0.1,0,0.1S14.5,4.7,14.5,4.7z M12.4,10.5c0,0.1,0,0.1,0,0.2
		c0,0.1,0,0.1,0,0.2V11c0,0,0,0.1,0,0.1c0,0,0,0.1-0.1,0.1c0,0-0.1,0-0.2,0.1c-0.1,0-0.2,0-0.2,0H11c-0.1,0-0.2,0-0.3,0
		c-0.1,0-0.1,0-0.2-0.1c0,0,0-0.1-0.1-0.2c0-0.1,0-0.2,0-0.2V10c0-0.1,0-0.1,0-0.2s0-0.1,0.1-0.2c0,0,0.1-0.1,0.2-0.1c0,0,0,0,0,0
		c0,0,0,0,0,0h1c0.1,0,0.2,0,0.3,0s0.2,0,0.2,0.1c0,0,0.1,0.1,0.1,0.1c0,0,0,0.1,0,0.1v0.1c0,0,0,0.1,0,0.1c0,0,0,0.1,0,0.1V10.5z"
		/>
</g>
</svg>
