<?xml version="1.0" encoding="UTF-8"?>
<svg id="Layer_1" data-name="Layer 1" xmlns="http://www.w3.org/2000/svg" viewBox="0 0 24 24">
  <defs>
    <style>
      .cls-1 {
        fill: #fff;
      }
    </style>
  </defs>
  <path class="cls-1" d="M18.84,19.45l.71-.71-4-4c.5-.63,.83-1.39,.93-2.23h5.23v-1h-5.22c-.09-.84-.42-1.61-.92-2.24l4-4-.71-.71-4,4c-.63-.5-1.39-.83-2.23-.93V2.41h-1V7.63c-.84,.09-1.61,.42-2.24,.92L5.38,4.54l-.71,.71,4,4c-.5,.63-.83,1.39-.93,2.23H2.52v1H7.74c.09,.84,.42,1.61,.92,2.24l-3.99,3.99,.71,.71,3.99-3.99c.63,.5,1.39,.83,2.24,.93v5.23h1v-5.22c.84-.09,1.61-.42,2.24-.92l4,4Z"/>
</svg>