<?xml version="1.0" encoding="utf-8"?>
<!-- Generator: Adobe Illustrator 27.0.0, SVG Export Plug-In . SVG Version: 6.00 Build 0)  -->
<svg version="1.1" id="Layer_1" xmlns="http://www.w3.org/2000/svg" xmlns:xlink="http://www.w3.org/1999/xlink" x="0px" y="0px"
	 viewBox="0 0 24 24" style="enable-background:new 0 0 24 24;" xml:space="preserve">
<style type="text/css">
	.st0{fill:#C9FF56;}
</style>
<polygon class="st0" points="12,8.7 13.7,2.2 13.1,8.9 17,3.3 14.1,9.4 19.7,5.6 14.9,10.3 21.4,8.6 15.3,11.4 22,12 15.3,12.6 
	21.4,15.4 14.9,13.7 19.7,18.4 14.1,14.6 17,20.7 13.1,15.1 13.7,21.8 12,15.3 10.3,21.8 10.9,15.1 7,20.7 9.9,14.6 4.3,18.4 
	9.1,13.7 2.6,15.4 8.7,12.6 2,12 8.7,11.4 2.6,8.6 9.1,10.3 4.3,5.6 9.9,9.4 7,3.3 10.9,8.9 10.3,2.2 "/>
</svg>
