<?xml version="1.0" encoding="utf-8"?>
<!-- Generator: Adobe Illustrator 27.0.0, SVG Export Plug-In . SVG Version: 6.00 Build 0)  -->
<svg version="1.1" id="Layer_1" xmlns="http://www.w3.org/2000/svg" xmlns:xlink="http://www.w3.org/1999/xlink" x="0px" y="0px"
	 viewBox="0 0 24 24" style="enable-background:new 0 0 24 24;" xml:space="preserve">
<style type="text/css">
	.st0{fill:#C9FF56;}
</style>
<path class="st0" d="M18.8,19.5l0.7-0.7l-4-4c0.5-0.6,0.8-1.4,0.9-2.2h5.2v-1h-5.2c-0.1-0.8-0.4-1.6-0.9-2.2l4-4l-0.7-0.7l-4,4
	c-0.6-0.5-1.4-0.8-2.2-0.9V2.4h-1v5.2C10.8,7.7,10,8.1,9.4,8.6l-4-4L4.7,5.2l4,4c-0.5,0.6-0.8,1.4-0.9,2.2H2.5v1h5.2
	c0.1,0.8,0.4,1.6,0.9,2.2l-4,4l0.7,0.7l4-4c0.6,0.5,1.4,0.8,2.2,0.9v5.2h1v-5.2c0.8-0.1,1.6-0.4,2.2-0.9L18.8,19.5L18.8,19.5z"/>
</svg>
